PathFileType	3	(X/Y/Z)	C:\Users\koon_\Desktop\
DataRate	CameraRate	NumFrames	NumMarkers	Units	OrigDataRate	OrigDataStartFrame	OrigNumFrames
100.0	100.0	5	27	mm	100.0	1765	2016	
Frame#	Time	get:LFHD			get:RFHD			get:LBHD			get:RBHD			get:C7			get:T10			get:CLAV			get:STRN			get:RBAK			get:LSHO			get:LUPA			get:LELB			get:LFRA			get:LWRA			get:LWRB			get:LFIN			get:RSHO			get:RUPA			get:RELB			get:RFRA			get:RWRA			get:RWRB			get:RFIN			get:LASI			get:RASI			get:LPSI			get:RPSI			
		X1	Y1	Z1	X2	Y2	Z2	X3	Y3	Z3	X4	Y4	Z4	X5	Y5	Z5	X6	Y6	Z6	X7	Y7	Z7	X8	Y8	Z8	X9	Y9	Z9	X10	Y10	Z10	X11	Y11	Z11	X12	Y12	Z12	X13	Y13	Z13	X14	Y14	Z14	X15	Y15	Z15	X16	Y16	Z16	X17	Y17	Z17	X18	Y18	Z18	X19	Y19	Z19	X20	Y20	Z20	X21	Y21	Z21	X22	Y22	Z22	X23	Y23	Z23	X24	Y24	Z24	X25	Y25	Z25	X26	Y26	Z26	X27	Y27	Z27	
1765	17.64	56.344448	1558.0248	-38.226273	-84.698273	1551.1891	-41.145401	35.711411	1556.9543	-199.37016	-92.828812	1526.6654	-206.64352	-5.719748	1334.871	-222.69629	-7.7067809	1121.0046	-258.9426	-7.6805038	1261.5613	-26.608913	2.9478874	1068.2192	14.626337	-84.402328	1256.1257	-249.69991	126.29337	1341.36	-137.44952	222.98529	1207.4902	-119.63155	256.90298	1011.7475	-140.63771	243.88405	878.02631	-74.699036	216.36259	796.31226	-70.215767	281.84763	802.68365	-125.189	280.45612	728.98047	-55.842106	-144.96504	1328.6278	-136.62068	-235.233	1106.8973	-113.30985	-241.53062	997.08118	-186.2245	-246.20245	937.93439	-106.28429	-213.63519	779.60706	-108.55202	-267.71863	789.81628	-168.59595	-269.30182	712.01538	-98.65387	130.62762	892.37061	-21.335991	-135.58855	874.2934	-19.50255	35.376663	950.14423	-237.89061	-54.844017	947.23315	-239.10995
1766	17.65	56.407284	1558.0996	-38.282906	-84.649139	1551.1903	-41.101574	35.710285	1556.9427	-199.3737	-92.89801	1526.6461	-206.56749	-5.6516628	1334.866	-222.6057	-7.7048273	1121.0471	-258.99176	-7.6373334	1261.5798	-26.514069	2.9467041	1068.1877	14.676256	-84.397781	1256.1453	-249.63196	126.38174	1341.3683	-137.29408	222.95319	1207.4554	-119.25768	256.71069	1011.6571	-140.08521	243.52486	877.91644	-74.315727	215.93617	796.23169	-69.997284	281.30756	802.54529	-124.83621	279.8638	728.67651	-55.625008	-144.88959	1328.6689	-136.52521	-235.1382	1106.9624	-112.85958	-241.62904	997.07629	-185.54074	-246.13986	938.06555	-105.59589	-213.58669	779.65411	-107.81454	-267.79239	789.89526	-167.7019	-269.23666	712.08496	-97.589645	130.56693	892.34735	-21.276901	-135.61807	874.29584	-19.505949	35.402458	950.15851	-237.86452	-54.841957	947.25708	-239.11804
1767	17.66	56.460384	1558.135	-38.302528	-84.579552	1551.2451	-41.121952	35.723431	1556.9442	-199.38725	-92.914154	1526.6216	-206.55457	-5.5733562	1334.9001	-222.53328	-7.6524358	1121.1057	-258.99405	-7.585794	1261.5801	-26.343084	2.9654822	1068.2161	14.736725	-84.401924	1256.1532	-249.48669	126.44135	1341.3518	-137.14415	222.92665	1207.4014	-118.9142	256.52542	1011.5955	-139.58032	243.19684	877.79492	-74.005661	215.52335	796.09845	-69.805321	281.25412	802.4259	-124.48475	279.30087	728.37537	-55.49334	-144.81786	1328.7156	-136.36659	-235.17607	1107.1586	-111.95708	-241.68195	997.09912	-184.98003	-246.0808	938.1792	-104.93295	-213.54335	779.77802	-107.12309	-267.87854	789.91681	-166.75546	-269.2608	712.16473	-96.767807	130.5274	892.34967	-21.252602	-135.68312	874.30072	-19.458471	35.37698	950.14478	-237.79469	-54.877419	947.25763	-239.11194
1768	17.67	56.565632	1558.1747	-38.338829	-84.495483	1551.2948	-41.033531	35.738209	1556.9484	-199.40181	-92.872116	1526.6143	-206.50143	-5.5043344	1334.9039	-222.42366	-7.650423	1121.1029	-258.88522	-7.5272002	1261.6082	-26.243681	2.9474182	1068.2085	14.782734	-84.375824	1256.1676	-249.40968	126.53528	1341.368	-136.96332	222.86185	1207.3632	-118.56072	256.33701	1011.5249	-139.19698	242.87726	877.64703	-73.754044	215.16069	795.93457	-69.710991	280.9339	802.30615	-124.29067	278.83524	728.06543	-55.507374	-144.74138	1328.749	-136.25291	-235.0963	1107.282	-111.48849	-241.77798	997.0965	-184.26787	-246.03323	938.23785	-104.23787	-213.61884	779.86719	-106.26864	-268.034	789.94861	-165.95178	-269.30811	712.19604	-95.916183	130.48282	892.32214	-21.219685	-135.71034	874.31573	-19.57052	35.351482	950.14276	-237.79468	-54.863564	947.26971	-239.10271
1769	17.68	56.672462	1558.2085	-38.291191	-84.407143	1551.365	-41.051743	35.862846	1556.8975	-199.37651	-92.797043	1526.6501	-206.53659	-5.4193377	1334.9386	-222.39867	-7.6167512	1121.1317	-258.86642	-7.5162015	1261.6191	-26.154095	2.9326406	1068.2242	14.896306	-84.356613	1256.1909	-249.28076	126.61509	1341.3507	-136.78311	222.84929	1207.3236	-118.24541	256.19174	1011.4384	-138.86162	242.60002	877.49536	-73.589264	214.84662	795.77374	-69.681473	280.67972	802.18933	-124.13089	278.37238	727.69153	-55.597366	-144.68304	1328.783	-136.18005	-235.01682	1107.3304	-111.10427	-241.92764	997.06995	-183.56248	-245.99544	938.30914	-103.59489	-213.72099	779.83759	-105.53195	-268.2565	789.9848	-165.1725	-269.39346	712.2746	-95.081573	130.43559	892.33087	-21.169943	-135.75276	874.33032	-19.612185	35.323261	950.19672	-237.77716	-54.889874	947.27252	-239.10463
